<svg xmlns="http://www.w3.org/2000/svg" version="1.1" xmlns:xlink="http://www.w3.org/1999/xlink" xmlns:svgjs="http://svgjs.dev/svgjs" width="100%" height="100%" viewBox="0 0 1000 600"><rect width="1000" height="600" x="0" y="0" fill="#7f8380b3"/><g><circle r="166.66666666666666" cx="412.6030832926432" cy="434.825268793285" fill="#dfe4e0f2" transform="matrix(0.5082615467582143,0,0,0.5082615467582143,0,78.99503445371526)"/><path d="M425.7214754185595 509.82529702693614L399.4847255946355 509.82529702693614L399.4847255946355 359.82529298308737L425.7214754185595 359.82529298308737L425.7214754185595 509.82529702693614ZM487.51476330352557 447.10444727950824L337.6914377096695 447.10444727950824L337.6914377096695 422.41363389302074L487.51476330352557 422.41363389302074L487.51476330352557 447.10444727950824Z " fill="#7f8380b3" transform="matrix(0.5082615467582143,0,0,0.5082615467582143,0,78.99503445371526)"/><path d="M728.5451216364792 476.7050793038959L662.6030972258873 476.7050793038959L662.6030972258873 365.06825840451626L676.8400953856401 365.06825840451626L676.8400953856401 464.109172249384L728.5451216364792 464.109172249384L728.5451216364792 476.7050793038959ZM771.1708646297512 478.64455061008977L771.1708646297512 478.64455061008977Q763.2211635615059 478.64455061008977 756.7420506265287 475.66074860056074Q750.2629376915513 472.65563371953505 746.4479336936533 466.87984554394666Q742.6329296957556 461.12537023985493 742.6329296957556 452.87728897065676L742.6329296957556 452.87728897065676Q742.6329296957556 445.6948512762904 745.4675416048082 441.19783539050025Q748.3234663853574 436.70081950471 753.0762367291072 434.10064918212043Q757.829007072857 431.52179173102746 763.6047952484454 430.2430194412293Q769.3805834240338 428.98556002292776 775.220310214112 428.2182966490489L775.220310214112 428.2182966490489Q782.7011281094312 427.2592174317003 787.4325855816845 426.72639564428437Q792.142730182441 426.19357385686845 794.4445203040777 424.93611443856696Q796.7249975542178 423.65734214876875 796.7249975542178 420.5882886532532L796.7249975542178 420.5882886532532L796.7249975542178 420.1407183518238Q796.7249975542178 414.89775196365133 794.7642133765273 411.2532509377266Q792.8247420703334 407.63006278329846 788.924486586449 405.669278605608Q785.0242311025646 403.72980729941406 779.1845043124863 403.72980729941406L779.1845043124863 403.72980729941406Q773.1955874219316 403.72980729941406 768.9117002511077 405.60533999111806Q764.6491259517805 407.480872682822 761.985017014701 410.27285884888136Q759.3209080776215 413.0861578864373 757.9781971733335 416.0060212814764L757.9781971733335 416.0060212814764L745.0199713033787 411.74344698214924Q748.2382148993709 404.0921261148569 753.7156228740063 399.7869260725364Q759.1717179771451 395.4817260302159 765.7787081411022 393.6914448244985Q772.3643854335628 391.8798507472844 778.8221854970435 391.8798507472844L778.8221854970435 391.8798507472844Q782.9995083103842 391.8798507472844 788.3703519275365 392.902868579123Q793.7198826731922 393.9045735394649 798.7070946034049 396.90968842049057Q803.6943065336178 399.8934904300196 806.9551758726031 405.7758429630911Q810.2160452115884 411.6581954961627 810.2160452115884 421.4834292561119L810.2160452115884 421.4834292561119L810.2160452115884 476.7050793038959L796.9381262691842 476.7050793038959L796.9381262691842 465.32400592469224L796.0429856663254 465.32400592469224Q794.6150232760508 468.2438693197314 791.4820311660453 471.35554855824023Q788.3277261845433 474.4672277967491 783.2978885113371 476.55588920341944Q778.2893637096277 478.64455061008977 771.1708646297512 478.64455061008977ZM773.4939676228845 466.7306554434702L773.4939676228845 466.7306554434702Q780.9960983897004 466.7306554434702 786.1538132918863 463.8107920484311Q791.3328410655689 460.89092865339194 794.018262874145 456.202096924132Q796.7249975542178 451.53457806636874 796.7249975542178 446.4408017786727L796.7249975542178 446.4408017786727L796.7249975542178 434.8252868130061Q795.893795565849 435.7843660303547 793.1231222712863 436.5729422757302Q790.3524489767236 437.3615185211057 786.7931994367855 437.95827892301156Q783.2339498968472 438.576352196414 779.909141943372 438.98129675485006Q776.5630211184001 439.3862413132862 774.6235498122062 439.62068289974917L774.6235498122062 439.62068289974917Q769.7429022394766 440.21744330165495 765.5229536831426 441.66671856342623Q761.2816922553121 443.1373066966941 758.7241476757158 445.9506057342501Q756.187915967616 448.76390477180604 756.187915967616 453.55930085854914L756.187915967616 453.55930085854914Q756.187915967616 457.9071266438629 758.4257674747629 460.82699003890207Q760.6849318534063 463.74685343394117 764.5851873372907 465.2387544387057Q768.4641299496784 466.7306554434702 773.4939676228845 466.7306554434702ZM793.5067539582258 379.2200050782826L793.5067539582258 379.2200050782826Q789.8196271893078 379.2200050782826 787.1981439952215 376.5985218841964Q784.5766608011353 373.9770386901102 784.5766608011353 370.31122479268873L784.5766608011353 370.31122479268873Q784.5766608011353 366.6454108952674 787.1981439952215 364.04524057267776Q789.8196271893078 361.4663831215848 793.5067539582258 361.4663831215848L793.5067539582258 361.4663831215848Q797.1725678556472 361.4663831215848 799.7514253067402 364.04524057267776Q802.3302827578332 366.6454108952674 802.3302827578332 370.31122479268873L802.3302827578332 370.31122479268873Q802.3302827578332 373.9770386901102 799.7514253067402 376.5985218841964Q797.1725678556472 379.2200050782826 793.5067539582258 379.2200050782826ZM761.9637041432045 379.2200050782826L761.9637041432045 379.2200050782826Q758.2765773742864 379.2200050782826 755.6550941802002 376.5985218841964Q753.0336109861139 373.9770386901102 753.0336109861139 370.31122479268873L753.0336109861139 370.31122479268873Q753.0336109861139 366.6454108952674 755.6550941802002 364.04524057267776Q758.2765773742864 361.4663831215848 761.9637041432045 361.4663831215848L761.9637041432045 361.4663831215848Q765.6295180406258 361.4663831215848 768.2083754917188 364.04524057267776Q770.7872329428118 366.6454108952674 770.7872329428118 370.31122479268873L770.7872329428118 370.31122479268873Q770.7872329428118 373.9770386901102 768.2083754917188 376.5985218841964Q765.6295180406258 379.2200050782826 761.9637041432045 379.2200050782826ZM867.8247368669956 509.8252816096683L867.8247368669956 509.8252816096683Q858.5323248944624 509.8252816096683 851.7548317585321 507.4595528735417Q844.9773386226018 505.093824137415 840.4803227368116 501.2148815250273Q835.9833068510214 497.3146260411429 833.3618236569351 492.7323586693662L833.3618236569351 492.7323586693662L844.2953267347094 485.6991110754763Q846.1069208119235 488.0861526830995 848.7497168775064 491.00601607813866Q851.4138258145858 493.9471923446745 855.9534674433694 495.9932280083515Q860.4931090721528 498.0605765435252 867.8247368669956 498.0605765435252L867.8247368669956 498.0605765435252Q877.8630993419113 498.0605765435252 884.3422122768886 493.2651804567821Q890.821325211866 488.46978437003895 890.821325211866 478.1330416941705L890.821325211866 478.1330416941705L890.821325211866 461.3384989548213L889.5638657935644 461.3384989548213Q888.1359034032898 463.74685343394117 885.5570459521969 467.0290356444231Q882.9568756296072 470.3325307264017 878.1401666713675 472.8474495630048Q873.3021448416312 475.3623683996078 865.2032536729095 475.3623683996078L865.2032536729095 475.3623683996078Q855.1648911979938 475.3623683996078 847.1512515152588 470.5882851843613Q839.1376118325236 465.8355148406115 834.4914058462568 456.6922929685546Q829.8451998599902 447.54907109649776 829.8451998599902 434.4416551260666L829.8451998599902 434.4416551260666Q829.8451998599902 421.4834292561119 834.4061543602703 411.93526282561896Q838.9884217320471 402.3657835236294 847.0446871577756 397.1228171354569Q855.0796397120073 391.8798507472844 865.5016338738624 391.8798507472844L865.5016338738624 391.8798507472844Q873.600525042584 391.8798507472844 878.4385468723203 394.5439596843639Q883.2552558305601 397.20806862144343 885.8767390246464 400.6607538038985Q888.4982222187325 404.0921261148569 889.9261846090072 406.3512904935003L889.9261846090072 406.3512904935003L891.2049568988053 406.3512904935003L891.2049568988053 392.94549432211625L904.3123728692365 392.94549432211625L904.3123728692365 478.87899219655276Q904.3123728692365 489.66330517385063 899.4530381680036 496.5260497957674Q894.5723905952739 503.3887944176842 886.3029964545791 506.6070380136763Q878.0122894423877 509.8252816096683 867.8247368669956 509.8252816096683ZM867.4624180515528 463.3632217470017L867.4624180515528 463.3632217470017Q875.0924260473486 463.3632217470017 880.335392435521 459.88922369305004Q885.5783588236934 456.3939127676017 888.2850935037662 449.85086121813447Q890.9705153123424 443.28649679717057 890.9705153123424 434.1432749251137L890.9705153123424 434.1432749251137Q890.9705153123424 425.2344946395198 888.3277192467594 418.4570015035896Q885.66361030968 411.6581954961627 880.4206439215076 407.8005657552716Q875.1776775333351 403.94293601438045 867.4624180515528 403.94293601438045L867.4624180515528 403.94293601438045Q859.5127169833077 403.94293601438045 854.1844991091486 408.03500734173457Q848.8775941064862 412.1270786690887 846.2134851694067 418.9258846765156Q843.5493762323272 425.7460035554391 843.5493762323272 434.1432749251137L843.5493762323272 434.1432749251137Q843.5493762323272 442.75367500975466 846.2561109124 449.3606651737118Q848.941532720976 455.9463424661724 854.2697505951351 459.65478210658705Q859.5766555977975 463.3632217470017 867.4624180515528 463.3632217470017ZM961.9423773961404 509.8252816096683L961.9423773961404 509.8252816096683Q952.649965423607 509.8252816096683 945.8724722876768 507.4595528735417Q939.0736662802499 505.093824137415 934.5979632659563 501.2148815250273Q930.1009473801662 497.3146260411429 927.4794641860799 492.7323586693662L927.4794641860799 492.7323586693662L938.4129672638542 485.6991110754763Q940.2032484695717 488.0861526830995 942.8673574066511 491.00601607813866Q945.5314663437307 493.9471923446745 950.0711079725141 495.9932280083515Q954.589436729801 498.0605765435252 961.9423773961404 498.0605765435252L961.9423773961404 498.0605765435252Q971.9807398710559 498.0605765435252 978.4598528060333 493.2651804567821Q984.9389657410106 488.46978437003895 984.9389657410106 478.1330416941705L984.9389657410106 478.1330416941705L984.9389657410106 461.3384989548213L983.6601934512125 461.3384989548213Q982.2322310609379 463.74685343394117 979.653373609845 467.0290356444231Q977.074516158752 470.3325307264017 972.2364943290156 472.8474495630048Q967.3984724992793 475.3623683996078 959.3208942020542 475.3623683996078L959.3208942020542 475.3623683996078Q949.2825317271386 475.3623683996078 941.2475791729069 470.5882851843613Q933.2339394901717 465.8355148406115 928.5877335039049 456.6922929685546Q923.9415275176383 447.54907109649776 923.9415275176383 434.4416551260666L923.9415275176383 434.4416551260666Q923.9415275176383 421.4834292561119 928.5237948894151 411.93526282561896Q933.0847493896952 402.3657835236294 941.1410148154237 397.1228171354569Q949.1972802411522 391.8798507472844 959.619274403007 391.8798507472844L959.619274403007 391.8798507472844Q967.6968527002321 391.8798507472844 972.5348745299684 394.5439596843639Q977.3728963597049 397.20806862144343 979.9943795537911 400.6607538038985Q982.6158627478774 404.0921261148569 984.043825138152 406.3512904935003L984.043825138152 406.3512904935003L985.3225974279501 406.3512904935003L985.3225974279501 392.94549432211625L998.4300133983813 392.94549432211625L998.4300133983813 478.87899219655276Q998.4300133983813 489.66330517385063 993.5493658256516 496.5260497957674Q988.6900311244186 503.3887944176842 980.3993241122272 506.6070380136763Q972.1299299715324 509.8252816096683 961.9423773961404 509.8252816096683ZM961.5587457092009 463.3632217470017L961.5587457092009 463.3632217470017Q969.2100665764933 463.3632217470017 974.4530329646658 459.88922369305004Q979.6959993528383 456.3939127676017 982.402734032911 449.85086121813447Q985.0881558414872 443.28649679717057 985.0881558414872 434.1432749251137L985.0881558414872 434.1432749251137Q985.0881558414872 425.2344946395198 982.4240469044075 418.4570015035896Q979.7599379673281 411.6581954961627 974.5169715791557 407.8005657552716Q969.2740051909832 403.94293601438045 961.5587457092009 403.94293601438045L961.5587457092009 403.94293601438045Q953.6303575124523 403.94293601438045 948.3021396382933 408.03500734173457Q942.9739217641343 412.1270786690887 940.3098128270549 418.9258846765156Q937.6670167614719 425.7460035554391 937.6670167614719 434.1432749251137L937.6670167614719 434.1432749251137Q937.6670167614719 442.75367500975466 940.3524385700481 449.3606651737118Q943.0591732501208 455.9463424661724 948.3660782527832 459.65478210658705Q953.6942961269422 463.3632217470017 961.5587457092009 463.3632217470017ZM1054.9304357359633 392.94549432211625L1098.2381906171279 392.94549432211625L1098.2381906171279 404.47575780179636L1054.9304357359633 404.47575780179636L1054.9304357359633 392.94549432211625ZM1067.5050299189786 456.0315939521589L1067.5050299189786 372.9966466012649L1080.9960775763493 372.9966466012649L1080.9960775763493 454.9659503773271Q1080.9960775763493 460.592548452439 1083.2765548264892 463.171405903532Q1085.578344948126 465.7715762261216 1090.8852499507884 465.7715762261216L1090.8852499507884 465.7715762261216Q1092.1640222405865 465.7715762261216 1094.1461192897737 465.4731960251687Q1096.128216338961 465.1748158242158 1097.7906203156986 464.87643562326286L1097.7906203156986 464.87643562326286L1100.5612936102611 476.2575090024665Q1098.4513193320943 477.0034595048488 1095.7872103950149 477.3870911917883Q1093.1444143294318 477.74941000723106 1090.5229311353457 477.74941000723106L1090.5229311353457 477.74941000723106Q1079.653366672061 477.74941000723106 1073.57919829552 472.01624757463594Q1067.5050299189786 466.2830851420409 1067.5050299189786 456.0315939521589L1067.5050299189786 456.0315939521589ZM1128.9500384437804 476.7050793038959L1115.4589907864097 476.7050793038959L1115.4589907864097 392.94549432211625L1128.9500384437804 392.94549432211625L1128.9500384437804 476.7050793038959ZM1122.2791096653332 379.2200050782826L1122.2791096653332 379.2200050782826Q1118.4641056674354 379.2200050782826 1115.6934323728728 376.5985218841964Q1112.92275907831 373.9770386901102 1112.92275907831 370.31122479268873L1112.92275907831 370.31122479268873Q1112.92275907831 366.56015940928086 1115.6934323728728 363.9813019581879Q1118.4641056674354 361.38113163559825 1122.2791096653332 361.38113163559825L1122.2791096653332 361.38113163559825Q1126.1793651492176 361.38113163559825 1128.9500384437804 363.9813019581879Q1131.7207117383432 366.56015940928086 1131.7207117383432 370.31122479268873L1131.7207117383432 370.31122479268873Q1131.7207117383432 373.9770386901102 1128.9500384437804 376.5985218841964Q1126.1793651492176 379.2200050782826 1122.2791096653332 379.2200050782826ZM1152.628638676543 365.06825840451626L1166.1196863339137 365.06825840451626L1166.1196863339137 476.7050793038959L1152.628638676543 476.7050793038959L1152.628638676543 365.06825840451626ZM1189.7982865666763 365.06825840451626L1203.2893342240468 365.06825840451626L1203.2893342240468 476.7050793038959L1189.7982865666763 476.7050793038959L1189.7982865666763 365.06825840451626ZM1259.7684436901322 392.94549432211625L1309.086428333348 392.94549432211625L1309.086428333348 404.47575780179636L1259.7684436901322 404.47575780179636L1259.7684436901322 392.94549432211625ZM1289.7556538858992 476.7050793038959L1276.2646062285287 476.7050793038959L1276.2646062285287 381.777549657879Q1276.2646062285287 374.50986047752605 1279.6746656679907 369.6292129047964Q1283.0847251074522 364.7698782035634 1288.540820210591 362.2975851099536Q1294.0182281852267 359.82529201634384 1300.0923965617678 359.82529201634384L1300.0923965617678 359.82529201634384Q1304.8877926485109 359.82529201634384 1308.0207847585166 360.61386826171935Q1311.1750897400184 361.38113163559825 1312.666990744783 362.0631435234906L1312.666990744783 362.0631435234906L1308.9372382328718 373.59340700317074Q1307.8715946580398 373.2310881877279 1306.1878778098057 372.7835178862985Q1304.5041609615714 372.3359475848692 1301.669549052519 372.3359475848692L1301.669549052519 372.3359475848692Q1295.446190575501 372.3359475848692 1292.5902657949518 375.511565437868Q1289.7556538858992 378.70849616236336 1289.7556538858992 384.761351667408L1289.7556538858992 384.761351667408L1289.7556538858992 476.7050793038959ZM1350.3694604223322 478.64455061008977L1350.3694604223322 478.64455061008977Q1342.419759354087 478.64455061008977 1335.9406464191095 475.66074860056074Q1329.4615334841324 472.65563371953505 1325.6465294862344 466.87984554394666Q1321.81021261684 461.12537023985493 1321.81021261684 452.87728897065676L1321.81021261684 452.87728897065676Q1321.81021261684 445.6948512762904 1324.6661373973893 441.19783539050025Q1327.5007493064418 436.70081950471 1332.2748325216883 434.10064918212043Q1337.027602865438 431.52179173102746 1342.8033910410265 430.2430194412293Q1348.5578663451183 428.98556002292776 1354.418906006693 428.2182966490489L1354.418906006693 428.2182966490489Q1361.8997239020123 427.2592174317003 1366.6311813742655 426.72639564428437Q1371.341325975022 426.19357385686845 1373.6218032251622 424.93611443856696Q1375.9235933467987 423.65734214876875 1375.9235933467987 420.5882886532532L1375.9235933467987 420.5882886532532L1375.9235933467987 420.1407183518238Q1375.9235933467987 414.89775196365133 1373.9628091691084 411.2532509377266Q1372.0233378629143 407.63006278329846 1368.1230823790302 405.669278605608Q1364.2228268951455 403.72980729941406 1358.3831001050676 403.72980729941406L1358.3831001050676 403.72980729941406Q1352.3941832145126 403.72980729941406 1348.1102960436888 405.60533999111806Q1343.8477217443617 407.480872682822 1341.183612807282 410.27285884888136Q1338.5195038702027 413.0861578864373 1337.1767929659145 416.0060212814764L1337.1767929659145 416.0060212814764L1324.2185670959598 411.74344698214924Q1327.436810691952 404.0921261148569 1332.9142186665872 399.7869260725364Q1338.3703137697262 395.4817260302159 1344.9773039336833 393.6914448244985Q1351.5629812261436 391.8798507472844 1357.999468418128 391.8798507472844L1357.999468418128 391.8798507472844Q1362.1981041029653 391.8798507472844 1367.5689477201176 392.902868579123Q1372.9184784657732 393.9045735394649 1377.9056903959859 396.90968842049057Q1382.892902326199 399.8934904300196 1386.1324587936874 405.7758429630911Q1389.3933281326727 411.6581954961627 1389.3933281326727 421.4834292561119L1389.3933281326727 421.4834292561119L1389.3933281326727 476.7050793038959L1376.1367220617653 476.7050793038959L1376.1367220617653 465.32400592469224L1375.2415814589065 465.32400592469224Q1373.8136190686319 468.2438693197314 1370.6593140871298 471.35554855824023Q1367.526321977124 474.4672277967491 1362.4964843039181 476.55588920341944Q1357.4879595022085 478.64455061008977 1350.3694604223322 478.64455061008977ZM1352.6925634154654 466.7306554434702L1352.6925634154654 466.7306554434702Q1360.1733813107849 466.7306554434702 1365.3524090844674 463.8107920484311Q1370.5101239866533 460.89092865339194 1373.216858666726 456.202096924132Q1375.9235933467987 451.53457806636874 1375.9235933467987 446.4408017786727L1375.9235933467987 446.4408017786727L1375.9235933467987 434.8252868130061Q1375.09239135843 435.7843660303547 1372.3217180638674 436.5729422757302Q1369.5510447693046 437.3615185211057 1365.9917952293663 437.95827892301156Q1362.4325456894283 438.576352196414 1359.0864248644564 438.98129675485006Q1355.761616910981 439.3862413132862 1353.8008327332905 439.62068289974917L1353.8008327332905 439.62068289974917Q1348.9414980320576 440.21744330165495 1344.700236604227 441.66671856342623Q1340.4802880478933 443.1373066966941 1337.9227434682966 445.9506057342501Q1335.386511760197 448.76390477180604 1335.386511760197 453.55930085854914L1335.386511760197 453.55930085854914Q1335.386511760197 457.9071266438629 1337.624363267344 460.82699003890207Q1339.8835276459872 463.74685343394117 1343.762470258375 465.2387544387057Q1347.6627257422595 466.7306554434702 1352.6925634154654 466.7306554434702ZM1451.4350970593803 476.7050793038959L1437.283350385614 476.7050793038959L1405.2927302691633 392.94549432211625L1420.0412373448355 392.94549432211625L1437.8801107875197 442.6044849092782Q1440.736035568069 450.31974439106045 1442.7181326172563 458.0136910013461Q1444.7002296664434 465.68632474013503 1446.8741425591002 472.89007530599804L1446.8741425591002 472.89007530599804L1441.9295563718806 472.89007530599804Q1444.1034692645376 465.68632474013503 1446.0855663137247 458.0136910013461Q1448.0676633629118 450.31974439106045 1450.8383366574744 442.6044849092782L1450.8383366574744 442.6044849092782L1468.6772101001588 392.94549432211625L1483.4257171758309 392.94549432211625L1451.4350970593803 476.7050793038959ZM1533.4044008354426 478.4953605096133L1533.4044008354426 478.4953605096133Q1522.0233274562388 478.4953605096133 1513.4342402430946 473.1032040209644Q1504.8664659014469 467.7110475323155 1500.0710698147036 457.97106525835284Q1495.2756737279606 448.2310829843901 1495.2756737279606 435.3367957289253L1495.2756737279606 435.3367957289253Q1495.2756737279606 422.22937975849413 1500.0710698147036 412.4467717415382Q1504.8664659014469 402.6854765960789 1513.4342402430946 397.27200723593336Q1522.0233274562388 391.8798507472844 1533.4044008354426 391.8798507472844L1533.4044008354426 391.8798507472844Q1544.8707257006326 391.8798507472844 1553.5024386567702 397.27200723593336Q1562.1128387414112 402.6854765960789 1566.9082348281545 412.4467717415382Q1571.7036309148975 422.22937975849413 1571.7036309148975 435.3367957289253L1571.7036309148975 435.3367957289253Q1571.7036309148975 448.2310829843901 1566.9082348281545 457.97106525835284Q1562.1128387414112 467.7110475323155 1553.5024386567702 473.1032040209644Q1544.8707257006326 478.4953605096133 1533.4044008354426 478.4953605096133ZM1533.4044008354426 466.43227524251733L1533.4044008354426 466.43227524251733Q1541.8869236911037 466.43227524251733 1547.3430187942427 462.08444945720356Q1552.820426768878 457.75793654338645 1555.441909962964 450.66075033500664Q1558.0633931570505 443.5848769981235 1558.0633931570505 435.3367957289253L1558.0633931570505 435.3367957289253Q1558.0633931570505 427.0247758452373 1555.441909962964 419.86365102236755Q1552.820426768878 412.7238390709945 1547.3430187942427 408.3333875426875Q1541.8869236911037 403.94293601438045 1533.4044008354426 403.94293601438045L1533.4044008354426 403.94293601438045Q1525.0284423372646 403.94293601438045 1519.6362858486154 408.3333875426875Q1514.22281648847 412.7238390709945 1511.601333294384 419.84233815087094Q1508.9798501002974 426.96083723074736 1508.9798501002974 435.3367957289253L1508.9798501002974 435.3367957289253Q1508.9798501002974 443.5848769981235 1511.601333294384 450.66075033500664Q1514.22281648847 457.75793654338645 1519.6362858486154 462.08444945720356Q1525.0284423372646 466.43227524251733 1533.4044008354426 466.43227524251733ZM1604.82383322067 476.7050793038959L1591.3327855632992 476.7050793038959L1591.3327855632992 392.94549432211625L1604.3762629192406 392.94549432211625L1604.3762629192406 405.81846870608445L1605.2714035220993 405.81846870608445Q1607.5945065152328 399.4459201285902 1613.540797662794 395.5882903876991Q1619.508401681852 391.730660646808 1626.9892195771713 391.730660646808L1626.9892195771713 391.730660646808Q1628.5024334534323 391.730660646808 1630.5484691171096 391.81591213279455Q1632.615817652283 391.8798507472844 1633.8093384560948 391.965102233271L1633.8093384560948 391.965102233271L1633.8093384560948 405.5200885051315Q1633.2125780541892 405.37089840465507 1630.8255364465658 405.07251820370215Q1628.4171819674461 404.7741380027492 1625.73176015887 404.7741380027492L1625.73176015887 404.7741380027492Q1619.7215303968187 404.7741380027492 1614.9687600530688 407.28905683935227Q1610.2159897093188 409.80397567595537 1607.509255029246 414.17311433276575Q1604.82383322067 418.5635658610728 1604.82383322067 424.2541025506746L1604.82383322067 424.2541025506746L1604.82383322067 476.7050793038959ZM1662.5817149765535 476.7050793038959L1649.1119801906796 476.7050793038959L1649.1119801906796 392.94549432211625L1662.5817149765535 392.94549432211625L1662.5817149765535 476.7050793038959ZM1655.9107861981065 379.2200050782826L1655.9107861981065 379.2200050782826Q1652.0957822002088 379.2200050782826 1649.325108905646 376.5985218841964Q1646.5544356110831 373.9770386901102 1646.5544356110831 370.31122479268873L1646.5544356110831 370.31122479268873Q1646.5544356110831 366.56015940928086 1649.325108905646 363.9813019581879Q1652.0957822002088 361.38113163559825 1655.9107861981065 361.38113163559825L1655.9107861981065 361.38113163559825Q1659.811041681991 361.38113163559825 1662.5817149765535 363.9813019581879Q1665.3523882711163 366.56015940928086 1665.3523882711163 370.31122479268873L1665.3523882711163 370.31122479268873Q1665.3523882711163 373.9770386901102 1662.5817149765535 376.5985218841964Q1659.811041681991 379.2200050782826 1655.9107861981065 379.2200050782826ZM1675.9235725334477 392.94549432211625L1719.2313274146122 392.94549432211625L1719.2313274146122 404.47575780179636L1675.9235725334477 404.47575780179636L1675.9235725334477 392.94549432211625ZM1688.5194795879597 456.0315939521589L1688.5194795879597 372.9966466012649L1702.0105272453302 372.9966466012649L1702.0105272453302 454.9659503773271Q1702.0105272453302 460.592548452439 1704.2910044954701 463.171405903532Q1706.5714817456105 465.7715762261216 1711.8996996197693 465.7715762261216L1711.8996996197693 465.7715762261216Q1713.1571590380709 465.7715762261216 1715.1605689587545 465.4731960251687Q1717.142666007942 465.1748158242158 1718.7837571131827 464.87643562326286L1718.7837571131827 464.87643562326286L1721.5544304077457 476.2575090024665Q1719.4657690010754 477.0034595048488 1716.8016600639953 477.3870911917883Q1714.1375511269162 477.74941000723106 1711.51606793283 477.74941000723106L1711.51606793283 477.74941000723106Q1700.6465034695457 477.74941000723106 1694.593647964501 472.01624757463594Q1688.5194795879597 466.2830851420409 1688.5194795879597 456.0315939521589L1688.5194795879597 456.0315939521589Z " fill="#dfe4e0f2" transform="matrix(0.5082615467582143,0,0,0.5082615467582143,0,78.99503445371526)"/></g></svg>